<svg id="visual" viewBox="0 0 1920 960" width="1920" height="960" xmlns="http://www.w3.org/2000/svg" xmlns:xlink="http://www.w3.org/1999/xlink" version="1.1"><rect x="0" y="0" width="1920" height="960" fill="#0f0f10"></rect><defs><linearGradient id="grad1_0" x1="50%" y1="0%" x2="100%" y2="100%"><stop offset="10%" stop-color="#16a34a" stop-opacity="1"></stop><stop offset="90%" stop-color="#16a34a" stop-opacity="1"></stop></linearGradient></defs><defs><linearGradient id="grad1_1" x1="50%" y1="0%" x2="100%" y2="100%"><stop offset="10%" stop-color="#16a34a" stop-opacity="1"></stop><stop offset="90%" stop-color="#008f62" stop-opacity="1"></stop></linearGradient></defs><defs><linearGradient id="grad1_2" x1="50%" y1="0%" x2="100%" y2="100%"><stop offset="10%" stop-color="#00796f" stop-opacity="1"></stop><stop offset="90%" stop-color="#008f62" stop-opacity="1"></stop></linearGradient></defs><defs><linearGradient id="grad1_3" x1="50%" y1="0%" x2="100%" y2="100%"><stop offset="10%" stop-color="#00796f" stop-opacity="1"></stop><stop offset="90%" stop-color="#00626f" stop-opacity="1"></stop></linearGradient></defs><defs><linearGradient id="grad1_4" x1="50%" y1="0%" x2="100%" y2="100%"><stop offset="10%" stop-color="#004b61" stop-opacity="1"></stop><stop offset="90%" stop-color="#00626f" stop-opacity="1"></stop></linearGradient></defs><defs><linearGradient id="grad1_5" x1="50%" y1="0%" x2="100%" y2="100%"><stop offset="10%" stop-color="#004b61" stop-opacity="1"></stop><stop offset="90%" stop-color="#00344a" stop-opacity="1"></stop></linearGradient></defs><defs><linearGradient id="grad1_6" x1="50%" y1="0%" x2="100%" y2="100%"><stop offset="10%" stop-color="#17202d" stop-opacity="1"></stop><stop offset="90%" stop-color="#00344a" stop-opacity="1"></stop></linearGradient></defs><defs><linearGradient id="grad1_7" x1="50%" y1="0%" x2="100%" y2="100%"><stop offset="10%" stop-color="#17202d" stop-opacity="1"></stop><stop offset="90%" stop-color="#0f0f10" stop-opacity="1"></stop></linearGradient></defs><defs><linearGradient id="grad2_0" x1="0%" y1="0%" x2="50%" y2="100%"><stop offset="10%" stop-color="#16a34a" stop-opacity="1"></stop><stop offset="90%" stop-color="#16a34a" stop-opacity="1"></stop></linearGradient></defs><defs><linearGradient id="grad2_1" x1="0%" y1="0%" x2="50%" y2="100%"><stop offset="10%" stop-color="#008f62" stop-opacity="1"></stop><stop offset="90%" stop-color="#16a34a" stop-opacity="1"></stop></linearGradient></defs><defs><linearGradient id="grad2_2" x1="0%" y1="0%" x2="50%" y2="100%"><stop offset="10%" stop-color="#008f62" stop-opacity="1"></stop><stop offset="90%" stop-color="#00796f" stop-opacity="1"></stop></linearGradient></defs><defs><linearGradient id="grad2_3" x1="0%" y1="0%" x2="50%" y2="100%"><stop offset="10%" stop-color="#00626f" stop-opacity="1"></stop><stop offset="90%" stop-color="#00796f" stop-opacity="1"></stop></linearGradient></defs><defs><linearGradient id="grad2_4" x1="0%" y1="0%" x2="50%" y2="100%"><stop offset="10%" stop-color="#00626f" stop-opacity="1"></stop><stop offset="90%" stop-color="#004b61" stop-opacity="1"></stop></linearGradient></defs><defs><linearGradient id="grad2_5" x1="0%" y1="0%" x2="50%" y2="100%"><stop offset="10%" stop-color="#00344a" stop-opacity="1"></stop><stop offset="90%" stop-color="#004b61" stop-opacity="1"></stop></linearGradient></defs><defs><linearGradient id="grad2_6" x1="0%" y1="0%" x2="50%" y2="100%"><stop offset="10%" stop-color="#00344a" stop-opacity="1"></stop><stop offset="90%" stop-color="#17202d" stop-opacity="1"></stop></linearGradient></defs><defs><linearGradient id="grad2_7" x1="0%" y1="0%" x2="50%" y2="100%"><stop offset="10%" stop-color="#0f0f10" stop-opacity="1"></stop><stop offset="90%" stop-color="#17202d" stop-opacity="1"></stop></linearGradient></defs><g transform="translate(1920, 0)"><path d="M0 576C-39.8 556.7 -79.7 537.4 -120.2 526.5C-160.6 515.5 -201.8 513 -242.1 502.7C-282.4 492.4 -321.9 474.4 -359.1 450.3C-396.3 426.3 -431.3 396.3 -444.9 354.8C-458.4 313.2 -450.7 260.2 -454.1 218.7C-457.5 177.2 -472.1 147.3 -494.3 112.8C-516.5 78.3 -546.2 39.2 -576 0L0 0Z" fill="#16181f"></path><path d="M0 504C-34.9 487.1 -69.7 470.2 -105.1 460.7C-140.6 451.1 -176.6 448.9 -211.8 439.9C-247.1 430.9 -281.7 415.1 -314.2 394C-346.8 373 -377.4 346.8 -389.3 310.4C-401.1 274.1 -394.3 227.6 -397.3 191.3C-400.3 155.1 -413.1 128.9 -432.5 98.7C-451.9 68.5 -478 34.3 -504 0L0 0Z" fill="#122a3c"></path><path d="M0 432C-29.9 417.5 -59.8 403 -90.1 394.8C-120.5 386.7 -151.3 384.8 -181.6 377.1C-211.8 369.3 -241.4 355.8 -269.3 337.8C-297.3 319.7 -323.5 297.2 -333.6 266.1C-343.8 234.9 -338 195.1 -340.6 164C-343.1 132.9 -354.1 110.5 -370.7 84.6C-387.4 58.7 -409.7 29.4 -432 0L0 0Z" fill="#003f57"></path><path d="M0 360C-24.9 347.9 -49.8 335.9 -75.1 329C-100.4 322.2 -126.1 320.6 -151.3 314.2C-176.5 307.8 -201.2 296.5 -224.5 281.5C-247.7 266.4 -269.5 247.7 -278 221.7C-286.5 195.8 -281.7 162.6 -283.8 136.7C-285.9 110.8 -295.1 92.1 -308.9 70.5C-322.8 48.9 -341.4 24.5 -360 0L0 0Z" fill="#00566a"></path><path d="M0 288C-19.9 278.3 -39.8 268.7 -60.1 263.2C-80.3 257.8 -100.9 256.5 -121.1 251.4C-141.2 246.2 -161 237.2 -179.6 225.2C-198.2 213.1 -215.6 198.2 -222.4 177.4C-229.2 156.6 -225.3 130.1 -227 109.3C-228.8 88.6 -236.1 73.7 -247.1 56.4C-258.2 39.2 -273.1 19.6 -288 0L0 0Z" fill="#006d71"></path><path d="M0 216C-14.9 208.8 -29.9 201.5 -45.1 197.4C-60.2 193.3 -75.7 192.4 -90.8 188.5C-105.9 184.7 -120.7 177.9 -134.7 168.9C-148.6 159.9 -161.7 148.6 -166.8 133C-171.9 117.5 -169 97.6 -170.3 82C-171.6 66.5 -177 55.2 -185.4 42.3C-193.7 29.4 -204.8 14.7 -216 0L0 0Z" fill="#00846a"></path><path d="M0 144C-10 139.2 -19.9 134.3 -30 131.6C-40.2 128.9 -50.4 128.3 -60.5 125.7C-70.6 123.1 -80.5 118.6 -89.8 112.6C-99.1 106.6 -107.8 99.1 -111.2 88.7C-114.6 78.3 -112.7 65 -113.5 54.7C-114.4 44.3 -118 36.8 -123.6 28.2C-129.1 19.6 -136.6 9.8 -144 0L0 0Z" fill="#009957"></path><path d="M0 72C-5 69.6 -10 67.2 -15 65.8C-20.1 64.4 -25.2 64.1 -30.3 62.8C-35.3 61.6 -40.2 59.3 -44.9 56.3C-49.5 53.3 -53.9 49.5 -55.6 44.3C-57.3 39.2 -56.3 32.5 -56.8 27.3C-57.2 22.2 -59 18.4 -61.8 14.1C-64.6 9.8 -68.3 4.9 -72 0L0 0Z" fill="#16a34a"></path></g><g transform="translate(0, 960)"><path d="M0 -576C42.7 -572.9 85.5 -569.7 128.2 -561.6C170.9 -553.4 213.5 -540.2 246.4 -511.8C279.4 -483.3 302.5 -439.7 319.9 -401.1C337.2 -362.5 348.6 -328.8 384.7 -306.8C420.7 -284.7 481.2 -274.2 507.2 -244.3C533.2 -214.4 524.7 -165 530.4 -121.1C536.1 -77.1 556 -38.6 576 0L0 0Z" fill="#16181f"></path><path d="M0 -504C37.4 -501.3 74.8 -498.5 112.2 -491.4C149.5 -484.2 186.8 -472.6 215.6 -447.8C244.4 -422.9 264.7 -384.7 279.9 -350.9C295 -317.1 305.1 -287.7 336.6 -268.4C368.1 -249.1 421.1 -239.9 443.8 -213.7C466.6 -187.6 459.1 -144.4 464.1 -105.9C469.1 -67.5 486.5 -33.7 504 0L0 0Z" fill="#122a3c"></path><path d="M0 -432C32.1 -429.6 64.1 -427.3 96.1 -421.2C128.2 -415 160.1 -405.1 184.8 -383.8C209.5 -362.5 226.9 -329.8 239.9 -300.8C252.9 -271.8 261.5 -246.6 288.5 -230.1C315.5 -213.5 360.9 -205.6 380.4 -183.2C399.9 -160.8 393.5 -123.8 397.8 -90.8C402 -57.8 417 -28.9 432 0L0 0Z" fill="#003f57"></path><path d="M0 -360C26.7 -358 53.4 -356.1 80.1 -351C106.8 -345.9 133.5 -337.6 154 -319.8C174.6 -302.1 189.1 -274.8 199.9 -250.7C210.7 -226.5 217.9 -205.5 240.4 -191.7C262.9 -177.9 300.8 -171.4 317 -152.7C333.3 -134 327.9 -103.1 331.5 -75.7C335 -48.2 347.5 -24.1 360 0L0 0Z" fill="#00566a"></path><path d="M0 -288C21.4 -286.4 42.7 -284.9 64.1 -280.8C85.4 -276.7 106.8 -270.1 123.2 -255.9C139.7 -241.7 151.3 -219.9 159.9 -200.5C168.6 -181.2 174.3 -164.4 192.3 -153.4C210.3 -142.3 240.6 -137.1 253.6 -122.1C266.6 -107.2 262.3 -82.5 265.2 -60.5C268 -38.6 278 -19.3 288 0L0 0Z" fill="#006d71"></path><path d="M0 -216C16 -214.8 32.1 -213.6 48.1 -210.6C64.1 -207.5 80.1 -202.6 92.4 -191.9C104.8 -181.2 113.4 -164.9 119.9 -150.4C126.4 -135.9 130.7 -123.3 144.2 -115C157.8 -106.8 180.5 -102.8 190.2 -91.6C200 -80.4 196.7 -61.9 198.9 -45.4C201 -28.9 208.5 -14.5 216 0L0 0Z" fill="#00846a"></path><path d="M0 -144C10.7 -143.2 21.4 -142.4 32 -140.4C42.7 -138.3 53.4 -135 61.6 -127.9C69.8 -120.8 75.6 -109.9 80 -100.3C84.3 -90.6 87.2 -82.2 96.2 -76.7C105.2 -71.2 120.3 -68.5 126.8 -61.1C133.3 -53.6 131.2 -41.3 132.6 -30.3C134 -19.3 139 -9.6 144 0L0 0Z" fill="#009957"></path><path d="M0 -72C5.3 -71.6 10.7 -71.2 16 -70.2C21.4 -69.2 26.7 -67.5 30.8 -64C34.9 -60.4 37.8 -55 40 -50.1C42.1 -45.3 43.6 -41.1 48.1 -38.3C52.6 -35.6 60.2 -34.3 63.4 -30.5C66.7 -26.8 65.6 -20.6 66.3 -15.1C67 -9.6 69.5 -4.8 72 0L0 0Z" fill="#16a34a"></path></g></svg>