<svg id="visual" viewBox="0 0 1920 1080" width="1920" height="1080" xmlns="http://www.w3.org/2000/svg" xmlns:xlink="http://www.w3.org/1999/xlink" version="1.1"><path d="M0 23L35.5 33.7C71 44.3 142 65.7 213.2 69.2C284.3 72.7 355.7 58.3 426.8 49.3C498 40.3 569 36.7 640 33.2C711 29.7 782 26.3 853.2 31.8C924.3 37.3 995.7 51.7 1066.8 62.3C1138 73 1209 80 1280 81.8C1351 83.7 1422 80.3 1493.2 73.2C1564.3 66 1635.7 55 1706.8 55C1778 55 1849 66 1884.5 71.5L1920 77L1920 0L1884.5 0C1849 0 1778 0 1706.8 0C1635.7 0 1564.3 0 1493.2 0C1422 0 1351 0 1280 0C1209 0 1138 0 1066.8 0C995.7 0 924.3 0 853.2 0C782 0 711 0 640 0C569 0 498 0 426.8 0C355.7 0 284.3 0 213.2 0C142 0 71 0 35.5 0L0 0Z" fill="#68acff"></path><path d="M0 77L35.5 89.5C71 102 142 127 213.2 130.5C284.3 134 355.7 116 426.8 105.2C498 94.3 569 90.7 640 90.7C711 90.7 782 94.3 853.2 103.3C924.3 112.3 995.7 126.7 1066.8 137.5C1138 148.3 1209 155.7 1280 150.3C1351 145 1422 127 1493.2 116.2C1564.3 105.3 1635.7 101.7 1706.8 98C1778 94.3 1849 90.7 1884.5 88.8L1920 87L1920 75L1884.5 69.5C1849 64 1778 53 1706.8 53C1635.7 53 1564.3 64 1493.2 71.2C1422 78.3 1351 81.7 1280 79.8C1209 78 1138 71 1066.8 60.3C995.7 49.7 924.3 35.3 853.2 29.8C782 24.3 711 27.7 640 31.2C569 34.7 498 38.3 426.8 47.3C355.7 56.3 284.3 70.7 213.2 67.2C142 63.7 71 42.3 35.5 31.7L0 21Z" fill="#5aa4ff"></path><path d="M0 325L35.5 328.7C71 332.3 142 339.7 213.2 345C284.3 350.3 355.7 353.7 426.8 339.2C498 324.7 569 292.3 640 269C711 245.7 782 231.3 853.2 236.8C924.3 242.3 995.7 267.7 1066.8 292.8C1138 318 1209 343 1280 361C1351 379 1422 390 1493.2 395.5C1564.3 401 1635.7 401 1706.8 408.2C1778 415.3 1849 429.7 1884.5 436.8L1920 444L1920 85L1884.5 86.8C1849 88.7 1778 92.3 1706.8 96C1635.7 99.7 1564.3 103.3 1493.2 114.2C1422 125 1351 143 1280 148.3C1209 153.7 1138 146.3 1066.8 135.5C995.7 124.7 924.3 110.3 853.2 101.3C782 92.3 711 88.7 640 88.7C569 88.7 498 92.3 426.8 103.2C355.7 114 284.3 132 213.2 128.5C142 125 71 100 35.5 87.5L0 75Z" fill="#4b9dff"></path><path d="M0 390L35.5 391.8C71 393.7 142 397.3 213.2 404.5C284.3 411.7 355.7 422.3 426.8 407.8C498 393.3 569 353.7 640 319.5C711 285.3 782 256.7 853.2 260.3C924.3 264 995.7 300 1066.8 330.5C1138 361 1209 386 1280 400.3C1351 414.7 1422 418.3 1493.2 423.8C1564.3 429.3 1635.7 436.7 1706.8 454.7C1778 472.7 1849 501.3 1884.5 515.7L1920 530L1920 442L1884.5 434.8C1849 427.7 1778 413.3 1706.8 406.2C1635.7 399 1564.3 399 1493.2 393.5C1422 388 1351 377 1280 359C1209 341 1138 316 1066.8 290.8C995.7 265.7 924.3 240.3 853.2 234.8C782 229.3 711 243.7 640 267C569 290.3 498 322.7 426.8 337.2C355.7 351.7 284.3 348.3 213.2 343C142 337.7 71 330.3 35.5 326.7L0 323Z" fill="#3a95ff"></path><path d="M0 476L35.5 481.5C71 487 142 498 213.2 498C284.3 498 355.7 487 426.8 461.7C498 436.3 569 396.7 640 376.8C711 357 782 357 853.2 375C924.3 393 995.7 429 1066.8 445.3C1138 461.7 1209 458.3 1280 469.2C1351 480 1422 505 1493.2 514C1564.3 523 1635.7 516 1706.8 526.8C1778 537.7 1849 566.3 1884.5 580.7L1920 595L1920 528L1884.5 513.7C1849 499.3 1778 470.7 1706.8 452.7C1635.7 434.7 1564.3 427.3 1493.2 421.8C1422 416.3 1351 412.7 1280 398.3C1209 384 1138 359 1066.8 328.5C995.7 298 924.3 262 853.2 258.3C782 254.7 711 283.3 640 317.5C569 351.7 498 391.3 426.8 405.8C355.7 420.3 284.3 409.7 213.2 402.5C142 395.3 71 391.7 35.5 389.8L0 388Z" fill="#268dff"></path><path d="M0 681L35.5 677.5C71 674 142 667 213.2 652.7C284.3 638.3 355.7 616.7 426.8 636.5C498 656.3 569 717.7 640 717.7C711 717.7 782 656.3 853.2 659.8C924.3 663.3 995.7 731.7 1066.8 771.3C1138 811 1209 822 1280 804C1351 786 1422 739 1493.2 706.5C1564.3 674 1635.7 656 1706.8 656C1778 656 1849 674 1884.5 683L1920 692L1920 593L1884.5 578.7C1849 564.3 1778 535.7 1706.8 524.8C1635.7 514 1564.3 521 1493.2 512C1422 503 1351 478 1280 467.2C1209 456.3 1138 459.7 1066.8 443.3C995.7 427 924.3 391 853.2 373C782 355 711 355 640 374.8C569 394.7 498 434.3 426.8 459.7C355.7 485 284.3 496 213.2 496C142 496 71 485 35.5 479.5L0 474Z" fill="#0085ff"></path><path d="M0 725L35.5 723.2C71 721.3 142 717.7 213.2 699.7C284.3 681.7 355.7 649.3 426.8 663.7C498 678 569 739 640 746.2C711 753.3 782 706.7 853.2 710.3C924.3 714 995.7 768 1066.8 798.5C1138 829 1209 836 1280 823.3C1351 810.7 1422 778.3 1493.2 756.8C1564.3 735.3 1635.7 724.7 1706.8 717.5C1778 710.3 1849 706.7 1884.5 704.8L1920 703L1920 690L1884.5 681C1849 672 1778 654 1706.8 654C1635.7 654 1564.3 672 1493.2 704.5C1422 737 1351 784 1280 802C1209 820 1138 809 1066.8 769.3C995.7 729.7 924.3 661.3 853.2 657.8C782 654.3 711 715.7 640 715.7C569 715.7 498 654.3 426.8 634.5C355.7 614.7 284.3 636.3 213.2 650.7C142 665 71 672 35.5 675.5L0 679Z" fill="#007ef1"></path><path d="M0 800L35.5 816.2C71 832.3 142 864.7 213.2 871.8C284.3 879 355.7 861 426.8 855.7C498 850.3 569 857.7 640 852.3C711 847 782 829 853.2 827.2C924.3 825.3 995.7 839.7 1066.8 859.5C1138 879.3 1209 904.7 1280 895.7C1351 886.7 1422 843.3 1493.2 828.8C1564.3 814.3 1635.7 828.7 1706.8 844.8C1778 861 1849 879 1884.5 888L1920 897L1920 701L1884.5 702.8C1849 704.7 1778 708.3 1706.8 715.5C1635.7 722.7 1564.3 733.3 1493.2 754.8C1422 776.3 1351 808.7 1280 821.3C1209 834 1138 827 1066.8 796.5C995.7 766 924.3 712 853.2 708.3C782 704.7 711 751.3 640 744.2C569 737 498 676 426.8 661.7C355.7 647.3 284.3 679.7 213.2 697.7C142 715.7 71 719.3 35.5 721.2L0 723Z" fill="#0077e3"></path><path d="M0 951L35.5 963.7C71 976.3 142 1001.7 213.2 1010.7C284.3 1019.7 355.7 1012.3 426.8 1001.5C498 990.7 569 976.3 640 963.8C711 951.3 782 940.7 853.2 946.2C924.3 951.7 995.7 973.3 1066.8 984.2C1138 995 1209 995 1280 980.5C1351 966 1422 937 1493.2 928C1564.3 919 1635.7 930 1706.8 933.7C1778 937.3 1849 933.7 1884.5 931.8L1920 930L1920 895L1884.5 886C1849 877 1778 859 1706.8 842.8C1635.7 826.7 1564.3 812.3 1493.2 826.8C1422 841.3 1351 884.7 1280 893.7C1209 902.7 1138 877.3 1066.8 857.5C995.7 837.7 924.3 823.3 853.2 825.2C782 827 711 845 640 850.3C569 855.7 498 848.3 426.8 853.7C355.7 859 284.3 877 213.2 869.8C142 862.7 71 830.3 35.5 814.2L0 798Z" fill="#0070d6"></path><path d="M0 1005L35.5 1010.5C71 1016 142 1027 213.2 1032.5C284.3 1038 355.7 1038 426.8 1038C498 1038 569 1038 640 1029C711 1020 782 1002 853.2 996.5C924.3 991 995.7 998 1066.8 1008.8C1138 1019.7 1209 1034.3 1280 1027.2C1351 1020 1422 991 1493.2 976.5C1564.3 962 1635.7 962 1706.8 969.2C1778 976.3 1849 990.7 1884.5 997.8L1920 1005L1920 928L1884.5 929.8C1849 931.7 1778 935.3 1706.8 931.7C1635.7 928 1564.3 917 1493.2 926C1422 935 1351 964 1280 978.5C1209 993 1138 993 1066.8 982.2C995.7 971.3 924.3 949.7 853.2 944.2C782 938.7 711 949.3 640 961.8C569 974.3 498 988.7 426.8 999.5C355.7 1010.3 284.3 1017.7 213.2 1008.7C142 999.7 71 974.3 35.5 961.7L0 949Z" fill="#0069c8"></path><path d="M0 1081L35.5 1081C71 1081 142 1081 213.2 1081C284.3 1081 355.7 1081 426.8 1081C498 1081 569 1081 640 1081C711 1081 782 1081 853.2 1081C924.3 1081 995.7 1081 1066.8 1081C1138 1081 1209 1081 1280 1081C1351 1081 1422 1081 1493.2 1081C1564.3 1081 1635.7 1081 1706.8 1081C1778 1081 1849 1081 1884.5 1081L1920 1081L1920 1003L1884.5 995.8C1849 988.7 1778 974.3 1706.8 967.2C1635.7 960 1564.3 960 1493.2 974.5C1422 989 1351 1018 1280 1025.2C1209 1032.3 1138 1017.7 1066.8 1006.8C995.7 996 924.3 989 853.2 994.5C782 1000 711 1018 640 1027C569 1036 498 1036 426.8 1036C355.7 1036 284.3 1036 213.2 1030.5C142 1025 71 1014 35.5 1008.5L0 1003Z" fill="#0062bb"></path></svg>